<svg width="39" height="38" viewBox="0 0 39 38" fill="none" xmlns="http://www.w3.org/2000/svg">
<path d="M37.7881 9.59433C37.4025 9.59433 36.9068 9.70213 36.6314 9.48652C36.411 9.32482 36.3559 8.78581 36.3008 8.40851C36.0805 7.3844 35.5847 6.62979 34.5381 6.36028C34.2627 6.30638 33.9873 6.25248 33.6568 6.25248C31.6186 6.25248 29.5805 6.25248 27.5424 6.25248C27.3771 6.25248 27.2119 6.25248 27.0466 6.25248C27.0466 6.14468 26.9915 6.09078 26.9915 5.98298C26.9915 4.90496 26.9915 3.82695 26.9915 2.80284C26.9915 2.64113 27.0466 2.47943 27.1568 2.37163C27.4873 2.04823 27.8178 1.72482 28.1483 1.40142C28.6992 0.862411 28.6441 0.377305 27.9831 0C27.8178 0 27.6525 0 27.5424 0C26.9364 0.592908 26.3305 1.13191 25.7246 1.72482C25.5593 1.88652 25.5042 2.15603 25.5042 2.37163C25.5042 3.50355 25.5042 4.68936 25.5042 5.82128C25.5042 5.92908 25.5042 6.03688 25.5042 6.19858C25.339 6.19858 25.2288 6.19858 25.0636 6.19858C22.9703 6.19858 20.8771 6.19858 18.7839 6.19858C17.3517 6.19858 16.4703 6.89929 16.1398 8.19291C16.0297 8.57021 15.9195 8.89362 15.8644 9.27092C15.8093 9.48652 15.6992 9.54043 15.4788 9.54043C15.0932 9.54043 14.7076 9.54043 14.322 9.54043C13.7712 9.54043 13.4958 9.86383 13.4958 10.3489C13.4958 11.5887 13.4958 12.8284 13.4958 14.0681C13.4958 14.6071 13.7712 14.8766 14.3771 14.8766C15.1483 14.8766 15.1483 14.8766 15.2034 15.6312C15.2585 16.0624 15.3136 16.4936 15.3136 16.9787C15.3136 17.0326 15.3136 17.0865 15.3136 17.1943C15.1483 17.1943 15.0381 17.1943 14.928 17.1943C13.3856 17.1943 11.8432 17.1404 10.3008 17.2482C6.00424 17.5716 2.69915 20.8057 2.20339 24.956C2.20339 25.0638 2.09322 25.2794 1.98305 25.3333C0.93644 25.8184 0.275423 26.573 0.0550844 27.6511C0.0550844 27.705 0 27.705 0 27.7589C0 28.0823 0 28.4057 0 28.7291C0.165254 29.1064 0.275424 29.5376 0.495763 29.861C0.826271 30.4 1.26695 30.8312 1.87288 31.0468C2.14831 31.1546 2.20339 31.3163 2.20339 31.5858C2.1483 32.556 2.20339 33.5262 2.64407 34.4426C3.52542 36.383 5.0678 37.5688 7.2161 37.9461C7.27119 37.9461 7.38136 38 7.43644 38C15.6992 38 23.9619 38 32.2797 38C32.6102 37.8922 32.9407 37.8383 33.2161 37.7305C34.6483 37.1376 35.4746 36.0057 35.5847 34.4965C35.8602 31.9631 36.0805 29.3759 36.3008 26.8426C36.5212 24.2553 36.7966 21.6681 37.0169 19.0808C37.1271 17.895 37.2373 16.6553 37.3475 15.4695C37.3475 15.3078 37.4025 15.0922 37.4025 14.8766C38.0085 14.8227 38.6695 15.0383 39 14.3376C39 12.8823 39 11.4808 39 10.0255C38.6144 9.70213 38.2839 9.54042 37.7881 9.59433ZM17.6822 8.30071C17.7924 7.9773 18.0678 7.7617 18.4534 7.7078C18.5636 7.7078 18.7288 7.7078 18.8941 7.7078C23.7966 7.7078 28.6441 7.7078 33.5466 7.7078C34.3729 7.7078 34.5932 7.8695 34.8136 8.67801C34.8686 8.94752 34.9788 9.21702 35.0339 9.54043C29.1398 9.54043 23.2458 9.54043 17.3517 9.54043C17.4619 9.10922 17.517 8.73191 17.6822 8.30071ZM10.9619 18.8652L16.3602 18.8113C20.2161 18.8113 23.411 21.8298 23.6314 25.1716C16.9661 25.1716 10.3008 25.1716 3.69068 25.1716C3.91102 21.7759 7.05085 18.8113 10.9619 18.8652ZM1.4322 28.3518C1.37712 27.3816 2.14831 26.6808 3.19492 26.6269C4.07627 26.6269 4.95763 26.6269 5.83898 26.6269C11.8432 26.6269 17.9025 26.6269 23.9068 26.6269C24.1822 26.6269 24.4025 26.6269 24.678 26.6808C25.4492 26.8965 25.9449 27.5972 25.8898 28.4596C25.8347 29.2142 25.1737 29.861 24.3475 29.9149C23.1907 29.9688 22.089 29.9149 20.9322 29.9149C18.5085 29.9149 16.0847 29.9149 13.661 29.9149C10.1907 29.9149 6.72034 29.9149 3.25 29.9149C2.20339 29.9149 1.4322 29.2681 1.4322 28.3518ZM19.4449 36.5986C15.589 36.5986 11.678 36.5986 7.82203 36.5986C5.56356 36.5986 3.69068 34.766 3.58051 32.556C3.58051 32.1787 3.58051 31.8014 3.58051 31.4241C3.63559 31.4241 3.69068 31.4241 3.74576 31.4241H3.80085C3.91102 31.4241 4.02119 31.4241 4.13136 31.4241H23.3559C23.4661 31.4241 23.5763 31.4241 23.7415 31.478C23.9068 33.0411 23.5763 34.4426 22.3093 35.5206C21.4831 36.2213 20.5466 36.5986 19.4449 36.5986ZM37.3475 13.4752C37.1822 13.4752 37.072 13.4752 36.9068 13.4752C34.5932 13.4752 32.3347 13.4752 30.0212 13.4752C29.3051 13.4752 28.9746 13.7447 28.9746 14.2298C28.9746 14.7149 29.3051 14.9844 30.0212 14.9844C31.7839 14.9844 33.5466 14.9844 35.3093 14.9844C35.4195 14.9844 35.5847 14.9844 35.75 14.9844C35.6949 15.9007 35.5847 16.7092 35.5297 17.5716C35.3093 20.1589 35.0339 22.7461 34.8136 25.3333C34.5932 27.9206 34.3178 30.5078 34.0975 33.095C34.0424 33.634 33.9873 34.2269 33.9322 34.766C33.767 35.7901 32.8856 36.5986 31.839 36.5986C29.0847 36.5986 26.3305 36.5986 23.5763 36.5986C23.5763 36.5986 23.5212 36.5986 23.4661 36.5447C25.0636 35.0894 25.5042 33.2567 25.339 31.2624C26.3856 30.8312 27.1017 30.1305 27.4322 29.1064C27.8729 27.5972 27.1017 26.0879 25.6695 25.4411C25.5042 25.3872 25.339 25.2794 25.339 25.0638C24.8983 21.183 22.1441 18.2184 18.2331 17.4638C17.9025 17.4099 17.6271 17.356 17.2966 17.3021C17.0763 17.3021 16.9661 17.2482 16.9661 16.9787C16.911 16.3319 16.8559 15.6312 16.8008 14.9305C17.0212 14.9305 17.1314 14.9305 17.2415 14.9305C19.1144 14.9305 21.0424 14.9305 22.9153 14.9305C23.411 14.9305 23.7415 14.661 23.7415 14.2298C23.7415 13.7986 23.411 13.4752 22.9703 13.4752C22.9153 13.4752 22.8602 13.4752 22.8051 13.4752C21.0975 13.4752 19.3898 13.4752 17.6822 13.4752C16.8559 13.4752 16.0297 13.4752 15.2034 13.4752C15.2034 12.6667 15.2034 11.9121 15.2034 11.1035C22.6398 11.1035 30.0763 11.1035 37.5127 11.1035C37.3475 11.8582 37.3475 12.6128 37.3475 13.4752Z" fill="#AEE67C"/>
</svg>
