<svg width="37" height="38" viewBox="0 0 37 38" fill="none" xmlns="http://www.w3.org/2000/svg">
<path d="M21.6308 8.55566H9.32778C8.07373 8.55566 7.05713 9.57226 7.05713 10.8263V17.2747C7.05713 18.5287 8.07373 19.5453 9.32778 19.5453H21.6308C22.8849 19.5453 23.9015 18.5287 23.9015 17.2747V10.8263C23.9015 9.57968 22.8775 8.55566 21.6308 8.55566ZM22.3135 17.2747C22.3135 17.6531 22.0019 17.9648 21.6234 17.9648H9.32778C8.94934 17.9648 8.63768 17.6531 8.63768 17.2747V10.8263C8.63768 10.4479 8.94934 10.1362 9.32778 10.1362H21.6308C22.0093 10.1362 22.3209 10.4479 22.3209 10.8263L22.3135 17.2747Z" fill="#AEE67C"/>
<path d="M33.6145 13.7946C33.6739 11.5462 33.6294 10.2402 32.3531 8.96387L32.0117 8.62253C31.7001 8.31088 31.2029 8.31088 30.8912 8.62253C30.5796 8.93419 30.5796 9.43136 30.8912 9.74302L31.2326 10.0844C32.6054 11.4571 31.7743 13.0228 32.0266 19.1447C32.034 19.3822 32.1675 19.6122 32.3382 19.7383L34.8908 21.6899V31.1138C34.8908 31.8856 34.2675 32.5089 33.4958 32.5089C32.7241 32.5089 32.1008 31.8856 32.1008 31.1138V27.0623C32.1008 25.5931 30.9061 24.4058 29.4442 24.4058H28.6503V5.35755C29.9488 5.17204 30.958 4.05155 30.958 2.69361C30.958 1.20953 29.7485 0 28.2644 0H2.69361C1.20953 0 0 1.20953 0 2.69361C0 4.04413 1.00176 5.16462 2.30775 5.35755V36.412H1.1279C0.6901 36.412 0.333919 36.7682 0.333919 37.206C0.333919 37.6438 0.6901 38 1.1279 38C0.756883 38 6.07733 38 29.8301 38C30.2679 38 30.6241 37.6438 30.6241 37.206C30.6241 36.7682 30.2679 36.412 29.8301 36.412H28.6503V25.9938H29.4442C30.0379 25.9938 30.5202 26.4761 30.5202 27.0697V31.1213C30.5202 32.7612 31.8559 34.0969 33.4958 34.0969C35.1357 34.0969 36.4714 32.7612 36.4714 31.1213V19.1447C36.6421 14.7147 34.4679 14.9076 33.6145 13.7946ZM1.58055 2.70103C1.58055 2.09256 2.07772 1.59539 2.68619 1.59539H28.257C28.8655 1.59539 29.3626 2.09256 29.3626 2.70103C29.3626 3.30951 28.8655 3.80668 28.257 3.80668H2.69361C2.07772 3.80668 1.58055 3.30951 1.58055 2.70103ZM3.8883 36.412V5.39465H27.0623C27.0623 11.0193 27.0623 28.5019 27.0623 36.4195H3.8883V36.412ZM34.876 19.6938L33.6145 18.7292V15.7907C33.941 16.3398 35.0021 15.6942 34.876 19.6938Z" fill="#AEE67C"/>
</svg>
