<svg width="42" height="42" viewBox="0 0 42 42" fill="none" xmlns="http://www.w3.org/2000/svg">
<path d="M39.3789 12.7449C38.2173 11.1286 36.871 8.60151 36.7041 5.57355H36.9818C37.3257 5.57355 37.6049 5.31276 37.6049 4.95966V0.613129C37.6049 0.278485 37.3264 0 36.9818 0H30.0981C29.7542 0 29.4673 0.278485 29.4673 0.613129V4.96042C29.4673 5.31353 29.7542 5.57432 30.0981 5.57432H30.3766C30.2004 8.60228 28.8534 11.1294 27.701 12.7457C26.437 14.5297 25.7693 16.6291 25.7693 18.8585V19.397V28.167V38.7941C25.7693 40.1873 26.8925 41.302 28.268 41.302H38.8019C40.1859 41.302 41.3106 40.1873 41.3106 38.7941V18.8578C41.3122 16.6283 40.6421 14.5289 39.3789 12.7449ZM30.7213 1.24472H36.351V4.32883H36.044H31.0374H30.7213V1.24472ZM34.53 20.0286V27.5339H27.0132V20.0286H34.53ZM40.0574 38.7941C40.0574 39.5003 39.4997 40.0573 38.8035 40.0573H28.2687C27.5802 40.0573 27.0132 39.5003 27.0132 38.7941V28.7794H35.1616C35.504 28.7794 35.784 28.5009 35.784 28.167V19.397C35.784 19.0447 35.5047 18.7655 35.1616 18.7655H27.024C27.0417 16.833 27.6271 15.0128 28.7142 13.4704C29.9781 11.7056 31.4736 8.93692 31.6406 5.57432H35.4309C35.5986 8.93692 37.0933 11.7056 38.3581 13.4704C39.472 15.0305 40.0574 16.9068 40.0574 18.8578V38.7941Z" fill="#AEE67C"/>
<path d="M37.2988 36.917H29.782C29.4397 36.917 29.1604 37.1962 29.1604 37.5494C29.1604 37.9025 29.4389 38.1802 29.782 38.1802H37.2988C37.6419 38.1802 37.9204 37.9025 37.9204 37.5494C37.9204 37.1962 37.6419 36.917 37.2988 36.917Z" fill="#AEE67C"/>
<path d="M37.2988 33.7952H29.782C29.4397 33.7952 29.1604 34.0744 29.1604 34.4091C29.1604 34.7622 29.4389 35.0399 29.782 35.0399H37.2988C37.6419 35.0399 37.9204 34.7622 37.9204 34.4091C37.9196 34.0744 37.6419 33.7952 37.2988 33.7952Z" fill="#AEE67C"/>
<path d="M37.2988 30.6565H29.782C29.4397 30.6565 29.1604 30.9342 29.1604 31.2873C29.1604 31.6404 29.4389 31.9189 29.782 31.9189H37.2988C37.6419 31.9189 37.9204 31.6404 37.9204 31.2873C37.9204 30.9342 37.6419 30.6565 37.2988 30.6565Z" fill="#AEE67C"/>
<path d="M37.2988 15.6438H29.782C29.4397 15.6438 29.1604 15.9231 29.1604 16.2754C29.1604 16.61 29.4389 16.8885 29.782 16.8885H37.2988C37.6419 16.8885 37.9204 16.61 37.9204 16.2754C37.9196 15.9231 37.6419 15.6438 37.2988 15.6438Z" fill="#AEE67C"/>
<path d="M23.8836 35.0398C24.2367 35.0398 24.5144 34.7621 24.5144 34.409C24.5144 34.0744 24.2367 33.7951 23.8836 33.7951H1.25395V17.5391C3.08334 18.5977 5.42431 18.4492 7.11599 17.1114C9.01077 18.6169 11.7233 18.6169 13.6089 17.1114C15.5036 18.6169 18.2169 18.6169 20.1033 17.1114C21.1895 17.9668 22.5642 18.3569 23.9582 18.2076C24.3013 18.1707 24.5529 17.8545 24.5152 17.5014C24.469 17.1668 24.1728 16.9068 23.8197 16.9629C23.5959 16.9814 23.3735 16.9814 23.1597 16.9814C23.142 9.79076 19.9271 4.57031 15.4959 4.57031C13.3134 4.57031 11.4179 5.8335 10.0616 7.9883H3.67955C3.67031 7.9883 3.66108 7.9883 3.66108 7.9883C3.61416 7.9883 3.568 8.00676 3.52184 8.02522C3.49415 8.02522 3.45722 8.02522 3.41952 8.04369C3.39106 8.06215 3.36337 8.08061 3.33567 8.09908C3.29874 8.136 3.25259 8.136 3.22412 8.1737C3.22412 8.19216 3.21489 8.19216 3.21489 8.19216C3.18643 8.21062 3.1772 8.24832 3.16796 8.26678C3.1395 8.30371 3.1118 8.3414 3.09334 8.39679C3.07488 8.43449 3.07488 8.47142 3.06565 8.5268C3.06565 8.54527 3.04718 8.58219 3.04718 8.61912V16.8875C2.32251 16.739 1.63552 16.3859 1.06855 15.829C0.882383 15.6428 0.622361 15.5874 0.380802 15.6805C0.148474 15.792 0 16.0151 0 16.2752V36.5823C0 39.184 2.11787 41.3019 4.71887 41.3019H23.8836C24.2367 41.3019 24.5144 41.0234 24.5144 40.688C24.5144 40.3357 24.2367 40.0572 23.8836 40.0572H4.71887C2.80562 40.0572 1.25395 38.4971 1.25395 36.5823V35.0398H23.8836ZM6.67903 15.8297C6.00975 16.4798 5.16429 16.8698 4.30037 16.9637V10.0146L8.11839 13.4149C7.97838 14.2696 7.88606 15.1612 7.84913 16.0905C7.75605 16.0167 7.65373 15.9044 7.56065 15.8305C7.32063 15.5697 6.92059 15.5697 6.67903 15.8297ZM15.4952 5.8335C19.1455 5.8335 21.8126 10.3854 21.8957 16.7021C21.4034 16.516 20.9379 16.2005 20.5487 15.829C20.3071 15.5689 19.9071 15.5689 19.6663 15.829C18.1139 17.3714 15.5967 17.3714 14.055 15.829C13.8143 15.5689 13.4142 15.5689 13.1727 15.829C12.4203 16.5721 11.4264 16.9814 10.367 16.9814C9.92162 16.9814 9.49389 16.9068 9.08539 16.7583C9.15001 10.4224 11.8256 5.8335 15.4952 5.8335ZM8.40687 12.0017L5.32276 9.23379H9.39157C8.99231 10.07 8.65767 10.9986 8.40687 12.0017Z" fill="#AEE67C"/>
<path d="M13.3126 10.2931C14.4919 9.47537 16.489 9.47537 17.6691 10.2931C17.7807 10.367 17.9007 10.4047 18.0314 10.4047C18.2261 10.4047 18.4223 10.3301 18.5423 10.1447C18.7369 9.86618 18.6638 9.47614 18.3838 9.27151C16.7583 8.13834 14.2227 8.13834 12.5971 9.27151C12.3187 9.47614 12.244 9.86618 12.4387 10.1447C12.6425 10.4224 13.0333 10.497 13.3126 10.2931Z" fill="#AEE67C"/>
<path d="M12.5032 14.4175C14.148 13.0797 16.832 13.0797 18.4768 14.4175C18.5883 14.5106 18.7361 14.5476 18.8668 14.5476C19.053 14.5476 19.2384 14.4729 19.3592 14.3245C19.573 14.0452 19.5361 13.6552 19.2669 13.4505C17.1767 11.7789 13.7949 11.7789 11.7147 13.4505C11.4547 13.6552 11.4077 14.0452 11.6216 14.3245C11.8347 14.5845 12.234 14.6406 12.5032 14.4175Z" fill="#AEE67C"/>
</svg>
