<svg width="34" height="39" viewBox="0 0 34 39" fill="none" xmlns="http://www.w3.org/2000/svg">
<path d="M24.0058 19.6663H9.64052V19.6796C7.71637 19.8447 6.20093 21.4633 6.20093 23.4296V32.7367C6.20093 33.4072 6.7444 33.9506 7.41486 33.9506H11.2995V37.1878C11.2995 37.8584 11.843 38.4018 12.5135 38.4018H26.555C27.2255 38.4018 27.7689 37.8587 27.7694 37.1882V23.43C27.7695 21.3545 26.0813 19.6663 24.0058 19.6663ZM11.2996 31.5227H8.62887V23.4296C8.62887 22.6806 9.21562 22.0938 9.96423 22.0938C10.7128 22.0938 11.2996 22.6806 11.2996 23.4296V31.5227ZM25.3412 35.9739H13.7275V23.4296C13.728 22.9731 13.6451 22.5204 13.4827 22.0938H24.0054C24.7544 22.0938 25.3412 22.6806 25.3412 23.4296V35.9739Z" fill="#AEE67C"/>
<path d="M33.3626 21.5747L17.7425 9.63733C17.5307 9.47572 17.2718 9.38818 17.0054 9.38818C16.739 9.38818 16.48 9.47572 16.2683 9.63733L0.657876 21.5674C0.093774 21.9903 -0.137687 22.7178 0.0820735 23.3778C0.301834 24.0382 0.923313 24.4817 1.62827 24.4817H12.5135V22.0538H4.02021L17.0052 12.13L29.9906 22.0538H26.636V24.4817H32.3821C33.0776 24.4817 33.6951 24.0338 33.9181 23.3661C34.1371 22.7081 33.9105 21.9854 33.3626 21.5747Z" fill="#AEE67C"/>
<path d="M17.0051 0C14.7071 0 12.8372 1.86991 12.8372 4.16795C12.8372 6.04431 14.0831 7.63461 15.7912 8.15581V10.6829C15.7912 11.3534 16.3346 11.8968 17.0051 11.8968C17.6756 11.8968 18.219 11.3534 18.219 10.6829V7.12196C18.219 6.45143 17.6756 5.90803 17.0051 5.90803C16.0619 5.90803 15.2651 5.11127 15.2651 4.16802C15.2651 3.22478 16.0619 2.42802 17.0051 2.42802C17.9808 2.42802 18.7451 3.19238 18.7451 4.16802C18.7451 4.83855 19.2886 5.38196 19.959 5.38196C20.6296 5.38196 21.173 4.83848 21.173 4.16802C21.1731 1.86991 19.3035 0 17.0051 0Z" fill="#AEE67C"/>
</svg>
