<svg width="23" height="23" viewBox="0 0 23 23" fill="none" xmlns="http://www.w3.org/2000/svg">
<path d="M2.78395 15.127L5.88041 12.7591C5.70336 12.2213 5.60762 11.646 5.60762 11.0476C5.60762 10.4492 5.70336 9.87391 5.88041 9.33615L2.78395 6.96826C2.18002 8.1961 1.84131 9.58038 1.84131 11.0476C1.84131 12.5149 2.18002 13.8991 2.78395 15.127Z" fill="#FBBC05"/>
<path d="M5.88064 9.33637C6.59507 7.16644 8.63344 5.60762 11.0481 5.60762C12.3454 5.60762 13.5171 6.06795 14.4378 6.82121L17.116 4.14294C15.484 2.72011 13.3916 1.84131 11.0481 1.84131C7.40987 1.84131 4.28169 3.92392 2.78418 6.96849L5.88064 9.33637Z" fill="#EA4335"/>
<path d="M11.0479 20.2542C7.40865 20.2542 4.27974 18.1704 2.78271 15.1245L5.87792 12.7515C6.59007 14.9254 8.63039 16.4879 11.0479 16.4879C12.2308 16.4879 13.2789 16.2093 14.109 15.6854L17.0486 17.9613C15.4394 19.4575 13.2934 20.2542 11.0479 20.2542Z" fill="#34A853"/>
<path d="M11.0479 9.37402H19.6267C19.7522 9.91805 19.8359 10.5039 19.8359 11.0479C19.8359 14.0486 18.7381 16.3907 17.0486 17.9616L14.109 15.6857C15.0702 15.0791 15.7389 14.1437 15.9859 12.9311H11.0479V9.37402Z" fill="#4285F4"/>
</svg>
